# xmcd
#
# Track frame offsets: 
#        150
#        26178
#        37950
#        51720
#        67704
#        84579
#        103695
#        127995
#        142359
#        161502
#        179835
#        200139
#
# Disc length: 2955 seconds
#
# Revision: 0
# Processed by: cddbd v1.5.1PL2 Copyright (c) Steve Scherf et al.
# Submitted via: ExactAudioCopy v0.95b4
#
DISCID=b60b890c
DTITLE=Charlie Robison - Step Right Up
DYEAR=2001
DGENRE=Country
TTITLE0=Right Man For The Job
TTITLE1=The Preacher
TTITLE2=I Want You Bad
TTITLE3=Desperate Times
TTITLE4=The Wedding Song (Duet With Natalie Maines)
TTITLE5=Sweet Inspiration
TTITLE6=John O'Reilly
TTITLE7=Tonight
TTITLE8=One In A Million
TTITLE9=It Comes To Me Naturally
TTITLE10=Rain
TTITLE11=Life Of The Party
EXTD=
EXTT0=
EXTT1=
EXTT2=
EXTT3=
EXTT4=
EXTT5=
EXTT6=
EXTT7=
EXTT8=
EXTT9=
EXTT10=
EXTT11=
PLAYORDER=
